<svg width="34" height="25" viewBox="0 0 34 25" fill="none" xmlns="http://www.w3.org/2000/svg">
<path d="M4.62109 20.1992H19.75C19.8906 21.0195 20.1953 21.793 20.6172 22.4844H4.45703C1.92578 22.4844 0.613281 21.1836 0.613281 18.6875V4.41406C0.613281 1.90625 1.92578 0.617188 4.45703 0.617188H24.5312C27.0625 0.617188 28.375 1.91797 28.375 4.41406V11.0117C28 10.9531 27.6133 10.9062 27.2266 10.9062C25.293 10.9062 23.5117 11.6445 22.1406 12.8516L20.957 11.7617C20.4062 11.2578 19.7383 11 19.1055 11C18.4492 11 17.8164 11.2344 17.2539 11.7383L11.7109 16.6719L9.48438 14.668C8.96875 14.1992 8.38281 13.9648 7.80859 13.9648C7.28125 13.9648 6.74219 14.1992 6.23828 14.6445L2.91016 17.5508V18.4766C2.91016 19.5547 3.55469 20.1992 4.62109 20.1992ZM6.82422 8.86719C6.82422 10.4727 8.13672 11.7852 9.74219 11.7852C11.3359 11.7852 12.6484 10.4727 12.6484 8.86719C12.6484 7.27344 11.3359 5.9375 9.74219 5.9375C8.13672 5.9375 6.82422 7.27344 6.82422 8.86719ZM27.2383 24.6289C23.9336 24.6289 21.2031 21.9102 21.2031 18.6055C21.2031 15.3008 23.9336 12.5703 27.2383 12.5703C30.543 12.5703 33.2617 15.3008 33.2617 18.6055C33.2617 21.8984 30.5078 24.6289 27.2383 24.6289ZM27.2383 22.4258C27.7188 22.4258 28.0352 22.1094 28.0352 21.6289V19.4023H30.2617C30.7305 19.4023 31.0469 19.0859 31.0469 18.6055C31.0469 18.125 30.7305 17.8086 30.2617 17.8086H28.0352V15.582C28.0352 15.1133 27.7188 14.7852 27.2383 14.7852C26.7461 14.7852 26.4414 15.1133 26.4414 15.582V17.8086H24.2148C23.7344 17.8086 23.418 18.125 23.418 18.6055C23.418 19.0859 23.7461 19.4023 24.2148 19.4023H26.4414V21.6289C26.4414 22.1094 26.7461 22.4258 27.2383 22.4258Z" fill="#6600E4"/>
</svg>
