<svg width="25" height="25" viewBox="0 0 25 25" fill="none" xmlns="http://www.w3.org/2000/svg">
<path d="M12.5 24.6562C5.82031 24.6562 0.394531 19.2305 0.394531 12.5508C0.394531 5.87109 5.82031 0.445312 12.5 0.445312C19.1797 0.445312 24.6055 5.87109 24.6055 12.5508C24.6055 19.2305 19.1797 24.6562 12.5 24.6562ZM9.94531 18.7969C10.7305 19.5586 11.5156 19.6172 12.3125 18.8203L18.1367 13.043C18.5938 12.5859 18.9219 12.2695 18.9219 11.5312V9.28125C18.9219 8.71875 18.7812 8.40234 18.3945 8.01562L17.3047 6.9375C16.9297 6.5625 16.6016 6.33984 16.0391 6.33984H13.707C12.9922 6.33984 12.6758 6.66797 12.2188 7.125L6.44141 12.9492C5.65625 13.7344 5.70312 14.5312 6.46484 15.293L9.94531 18.7969ZM14.5508 10.7109C14.1875 10.3594 14.1875 9.77344 14.5508 9.41016C14.9023 9.04688 15.4883 9.04688 15.8398 9.41016C16.2031 9.76172 16.2031 10.3477 15.8398 10.6992C15.4766 11.0742 14.9023 11.0742 14.5508 10.7109Z" fill="#6600E4"/>
</svg>
