<svg width="27" height="27" viewBox="0 0 27 27" fill="none" xmlns="http://www.w3.org/2000/svg">
<path d="M12.9844 18.3906C11.625 18.1328 10.6992 17.6172 10.0078 16.9375C7.10156 14.0312 7.125 9.95312 9.99609 7.08203L14.0742 2.99219C16.9453 0.121094 21.0234 0.0976562 23.9297 3.01562C26.8359 5.92188 26.8242 10 23.9414 12.8711L20.5781 16.2227C20.7773 15.3203 20.6602 14.2773 20.2852 13.4219L22.3008 11.4062C24.2695 9.4375 24.2812 6.64844 22.2891 4.64453C20.3086 2.66406 17.5078 2.66406 15.5273 4.64453L11.6367 8.53516C9.66797 10.5039 9.66797 13.3164 11.6484 15.2969C12.375 16.0234 13.3594 16.4688 14.7656 16.5977L12.9844 18.3906ZM14.0156 8.51172C15.3867 8.76953 16.3125 9.28516 16.9922 9.97656C19.8984 12.8711 19.8867 16.9492 17.0039 19.832L12.9375 23.9102C10.0664 26.7812 5.98828 26.8047 3.08203 23.8984C0.175781 20.9922 0.1875 16.9023 3.07031 14.0312L6.42188 10.6797C6.22266 11.5938 6.35156 12.625 6.71484 13.4805L4.71094 15.4961C2.73047 17.4648 2.71875 20.2656 4.71094 22.2578C6.70312 24.2383 9.49219 24.2383 11.4727 22.2578L15.3633 18.3672C17.3438 16.3984 17.3438 13.5977 15.3516 11.6055C14.6367 10.8906 13.6406 10.4336 12.2461 10.3047L14.0156 8.51172Z" fill="#6600E4"/>
</svg>
