<svg width="25" height="25" viewBox="0 0 25 25" fill="none" xmlns="http://www.w3.org/2000/svg">
<path d="M11.1953 24.6162C10.8613 24.6162 10.5801 24.5225 10.3516 24.335C10.123 24.1533 9.9707 23.8955 9.89453 23.5615L9.32324 21.1709C9.13574 21.1064 8.95117 21.0361 8.76953 20.96C8.59375 20.8896 8.42089 20.8164 8.25097 20.7402L6.15918 22.0322C5.87793 22.2139 5.58789 22.29 5.28906 22.2607C4.99609 22.2314 4.73535 22.0996 4.50683 21.8652L3.03027 20.3887C2.79589 20.1602 2.66406 19.8936 2.63476 19.5889C2.60546 19.2842 2.68457 18.9912 2.87207 18.71L4.15527 16.6357C4.0791 16.4658 4.00586 16.293 3.93554 16.1172C3.86523 15.9414 3.80078 15.7656 3.74218 15.5898L1.33398 15.0186C1.00586 14.9424 0.748043 14.79 0.560543 14.5615C0.378902 14.333 0.288082 14.0518 0.288082 13.7178V11.6348C0.288082 11.3066 0.378902 11.0312 0.560543 10.8086C0.748043 10.5801 1.00586 10.4248 1.33398 10.3428L3.72461 9.77148C3.78906 9.57812 3.85644 9.39355 3.92675 9.21777C3.99707 9.04199 4.06738 8.875 4.13769 8.7168L2.8457 6.60742C2.66992 6.32031 2.59375 6.0332 2.61718 5.74609C2.64062 5.45313 2.77246 5.18945 3.01269 4.95508L4.51562 3.46973C4.73828 3.24121 4.99023 3.1123 5.27148 3.08301C5.55859 3.04785 5.84277 3.11523 6.12402 3.28516L8.24218 4.59473C8.41211 4.50684 8.58789 4.42773 8.76953 4.35742C8.95117 4.28711 9.13574 4.21973 9.32324 4.15527L9.89453 1.75586C9.9707 1.42188 10.123 1.16113 10.3516 0.973633C10.5801 0.786133 10.8613 0.692383 11.1953 0.692383H13.3047C13.6387 0.692383 13.9199 0.786133 14.1484 0.973633C14.3769 1.16113 14.5293 1.42188 14.6055 1.75586L15.1768 4.17285C15.3701 4.2373 15.5547 4.30469 15.7305 4.375C15.9121 4.44531 16.082 4.52148 16.2402 4.60352L18.376 3.28516C18.6514 3.11523 18.9297 3.05078 19.2109 3.0918C19.4922 3.12695 19.75 3.25293 19.9844 3.46973L21.4873 4.95508C21.7217 5.18945 21.8506 5.45313 21.874 5.74609C21.8975 6.0332 21.8213 6.32031 21.6455 6.60742L20.3623 8.7168C20.4268 8.875 20.4941 9.04199 20.5644 9.21777C20.6406 9.39355 20.7109 9.57812 20.7754 9.77148L23.166 10.3428C23.5 10.4248 23.7578 10.5801 23.9394 10.8086C24.1211 11.0312 24.2119 11.3066 24.2119 11.6348V13.7178C24.2119 14.0518 24.1211 14.333 23.9394 14.5615C23.7578 14.79 23.5 14.9424 23.166 15.0186L20.7578 15.5898C20.6992 15.7656 20.6348 15.9414 20.5644 16.1172C20.4941 16.293 20.4209 16.4658 20.3447 16.6357L21.6279 18.71C21.8096 18.9912 21.8857 19.2842 21.8564 19.5889C21.833 19.8936 21.7041 20.1602 21.4697 20.3887L19.9844 21.8652C19.7559 22.0996 19.4922 22.2314 19.1934 22.2607C18.9004 22.29 18.6133 22.2139 18.332 22.0322L16.2402 20.7402C16.0762 20.8164 15.9033 20.8896 15.7217 20.96C15.5459 21.0361 15.3643 21.1064 15.1768 21.1709L14.6055 23.5615C14.5293 23.8955 14.3769 24.1533 14.1484 24.335C13.9199 24.5225 13.6387 24.6162 13.3047 24.6162H11.1953ZM12.25 16.6533C12.9883 16.6533 13.6592 16.4746 14.2627 16.1172C14.8662 15.7539 15.3467 15.2705 15.7041 14.667C16.0674 14.0576 16.249 13.3867 16.249 12.6543C16.249 11.916 16.0674 11.2451 15.7041 10.6416C15.3467 10.0381 14.8662 9.55762 14.2627 9.2002C13.6592 8.83691 12.9883 8.65527 12.25 8.65527C11.5176 8.65527 10.8467 8.83691 10.2373 9.2002C9.63379 9.55762 9.15039 10.0381 8.78711 10.6416C8.42968 11.2451 8.25097 11.916 8.25097 12.6543C8.25097 13.3867 8.42968 14.0576 8.78711 14.667C9.15039 15.2705 9.63379 15.7539 10.2373 16.1172C10.8467 16.4746 11.5176 16.6533 12.25 16.6533Z" fill="#C7C7C7"/>
</svg>
