<svg width="288" height="144" viewBox="0 0 288 144" fill="none" xmlns="http://www.w3.org/2000/svg">
<path d="M3.20913 0C1.44411 0 0 1.44141 0 3.20313V140.797C0 142.559 1.44411 144 3.20913 144H16.3986C18.1637 144 19.6078 142.559 19.6078 140.797V3.20313C19.6078 1.44141 18.1637 0 16.3986 0H3.20913Z" fill="white"/>
<path d="M30.7177 3.20313C30.7177 1.44141 32.1618 0 33.9268 0H39.08C40.8451 0 42.2892 1.44141 42.2892 3.20313V140.797C42.2892 142.559 40.8451 144 39.08 144H33.9268C32.1618 144 30.7177 142.559 30.7177 140.797V3.20313Z" fill="white"/>
<path d="M53.3997 3.20313C53.3997 1.44141 54.8438 0 56.6089 0H74.4837C76.2487 0 77.6928 1.44141 77.6928 3.20313V140.797C77.6928 142.559 76.2487 144 74.4837 144H56.6089C54.8438 144 53.3997 142.559 53.3997 140.797V3.20313Z" fill="white"/>
<path d="M88.8029 3.20313C88.8029 1.44141 90.247 0 92.0121 0H99.5144C101.279 0 102.723 1.44141 102.723 3.20313V140.797C102.723 142.559 101.279 144 99.5144 144H92.0121C90.247 144 88.8029 142.559 88.8029 140.797V3.20313Z" fill="white"/>
<path d="M113.834 3.20313C113.834 1.44141 115.278 0 117.043 0H120.695C122.46 0 123.904 1.44141 123.904 3.20313V140.797C123.904 142.559 122.46 144 120.695 144H117.043C115.278 144 113.834 142.559 113.834 140.797V3.20313Z" fill="white"/>
<path d="M135.014 3.20313C135.014 1.44141 136.459 0 138.224 0H157.921C159.686 0 161.13 1.44141 161.13 3.20313V140.797C161.13 142.559 159.686 144 157.921 144H138.224C136.459 144 135.014 142.559 135.014 140.797V3.20313Z" fill="white"/>
<path d="M172.24 3.20313C172.24 1.44141 173.684 0 175.449 0H183.594C185.359 0 186.803 1.44141 186.803 3.20313V140.797C186.803 142.559 185.359 144 183.594 144H175.449C173.684 144 172.24 142.559 172.24 140.797V3.20313Z" fill="white"/>
<path d="M197.913 3.20313C197.913 1.44141 199.357 0 201.122 0H214.402C216.167 0 217.611 1.44141 217.611 3.20313V140.797C217.611 142.559 216.167 144 214.402 144H201.122C199.357 144 197.913 142.559 197.913 140.797V3.20313Z" fill="white"/>
<path d="M228.721 3.20313C228.721 1.44141 230.165 0 231.93 0H237.726C239.491 0 240.935 1.44141 240.935 3.20313V140.797C240.935 142.559 239.491 144 237.726 144H231.93C230.165 144 228.721 142.559 228.721 140.797V3.20313Z" fill="white"/>
<path d="M252.045 3.20313C252.045 1.44141 253.489 0 255.254 0H261.256C263.021 0 264.465 1.44141 264.465 3.20313V140.797C264.465 142.559 263.021 144 261.256 144H255.254C253.489 144 252.045 142.559 252.045 140.797V3.20313Z" fill="white"/>
<path d="M284.791 0C286.556 0 288 1.44141 288 3.20313V140.797C288 142.559 286.556 144 284.791 144H278.783C277.018 144 275.574 142.559 275.574 140.797V3.20313C275.574 1.44141 277.018 0 278.783 0H284.791Z" fill="white"/>
</svg>
